<?xml version="1.0" encoding="UTF-8" standalone="no"?>
<!DOCTYPE svg PUBLIC "-//W3C//DTD SVG 1.1//EN" "http://www.w3.org/Graphics/SVG/1.1/DTD/svg11.dtd">
<svg width="100%" height="100%" viewBox="0 0 500 200" version="1.1" xmlns="http://www.w3.org/2000/svg" xmlns:xlink="http://www.w3.org/1999/xlink" xml:space="preserve" style="fill-rule:evenodd;clip-rule:evenodd;">
	<style>
		* { fill: #111 }
		@media (prefers-color-scheme: dark) { * { fill: #eee; } }
	</style>
    <g transform="matrix(6.4742,0,0,6.4742,-93.0032,-228.618)">
        <g>
            <path d="M18.06,50.185C17.986,50.153 17.938,50.08 17.938,50C17.938,49.92 17.986,49.847 18.06,49.815C18.063,49.814 18.066,49.812 18.069,49.811C19.246,49.305 20.414,48.78 21.573,48.235C21.599,48.223 21.624,48.211 21.649,48.199C21.72,48.165 21.805,48.176 21.867,48.226C21.928,48.276 21.955,48.358 21.936,48.435C21.936,48.435 21.936,48.435 21.936,48.435C21.685,49.463 21.685,50.537 21.936,51.565C21.936,51.565 21.936,51.565 21.936,51.565C21.955,51.642 21.928,51.724 21.867,51.774C21.805,51.824 21.72,51.835 21.649,51.801C21.624,51.789 21.599,51.777 21.573,51.765C20.414,51.22 19.246,50.695 18.069,50.189C18.066,50.188 18.063,50.186 18.06,50.185Z"/>
        </g>
    </g>
    <g transform="matrix(-6.4742,0,0,6.4742,567.236,-228.618)">
        <g>
            <path d="M18.06,50.185C17.986,50.153 17.938,50.08 17.938,50C17.938,49.92 17.986,49.847 18.06,49.815C18.063,49.814 18.066,49.812 18.069,49.811C19.246,49.305 20.414,48.78 21.573,48.235C21.599,48.223 21.624,48.211 21.649,48.199C21.72,48.165 21.805,48.176 21.867,48.226C21.928,48.276 21.955,48.358 21.936,48.435C21.936,48.435 21.936,48.435 21.936,48.435C21.685,49.463 21.685,50.537 21.936,51.565C21.936,51.565 21.936,51.565 21.936,51.565C21.955,51.642 21.928,51.724 21.867,51.774C21.805,51.824 21.72,51.835 21.649,51.801C21.624,51.789 21.599,51.777 21.573,51.765C20.414,51.22 19.246,50.695 18.069,50.189C18.066,50.188 18.063,50.186 18.06,50.185Z"/>
        </g>
    </g>
    <g transform="matrix(4.47273,0,0,0.827795,-268.6,26.1598)">
        <g transform="matrix(1,0,0,1,0,-3.62409)">
            <path d="M84.753,40.636L84.753,100.25L86.8,106.839L86.8,85.243C86.8,81.331 86.883,78.261 87.056,76.039C87.221,73.93 87.471,72.116 87.859,70.883C88.252,69.633 88.671,69.144 89.042,69.144C89.634,69.144 90.197,70.471 90.492,71.927C90.916,74.027 90.985,76.686 90.985,80.721L90.985,114.907L93.031,114.907L93.031,80.721C93.031,75.406 92.908,71.356 92.672,68.563C92.426,65.66 92.019,63.378 91.449,61.731C90.894,60.128 90.241,59.315 89.488,59.315C88.38,59.315 87.496,60.926 86.8,63.512C86.8,63.512 86.8,40.636 86.8,40.636L84.753,40.636Z" style="fill-rule:nonzero;"/>
        </g>
        <g transform="matrix(1,0,0,0.938272,22.935,2.29823)">
            <path d="M84.753,60.163L84.753,115.062L86.8,115.014L86.8,85.243C86.8,81.354 86.882,78.301 87.054,76.092C87.219,73.992 87.468,72.189 87.854,70.961C88.248,69.706 88.67,69.217 89.042,69.217C89.636,69.217 90.201,70.545 90.496,72.005C90.917,74.085 90.985,76.724 90.985,80.721C90.985,80.721 90.985,114.98 90.985,114.98L93.031,114.98L93.031,80.721C93.031,75.381 92.907,71.313 92.669,68.506C92.423,65.596 92.016,63.304 91.445,61.653C90.891,60.054 90.239,59.242 89.488,59.242C88.38,59.242 87.495,60.859 86.8,63.452C86.8,63.452 86.8,60.163 86.8,60.163L84.753,60.163Z" style="fill-rule:nonzero;"/>
        </g>
        <g transform="matrix(1,0,0,1,-1.58491,-2.53657)">
            <path d="M95.301,113.802L95.301,61.6L97.159,61.6L97.159,65.978C97.383,64.033 97.606,62.971 97.817,62.19C98.135,61.01 98.485,60.42 98.867,60.42C99.419,60.42 99.98,61.37 100.55,63.271L99.789,71.203C99.399,70.364 99.034,70.213 98.822,70.292C98.425,70.44 98.17,71.321 97.96,72.455C97.808,73.28 97.639,74.447 97.534,75.952C97.427,77.475 97.387,78.965 97.362,80.537C97.334,82.355 97.323,84.468 97.323,86.472L97.323,113.802L95.301,113.802Z" style="fill-rule:nonzero;"/>
        </g>
        <g transform="matrix(0.971255,0,0,0.971255,0.23422,-0.318923)">
            <path d="M100.782,87.701C100.782,96.737 101.215,103.646 102.07,108.449C102.928,113.273 104.053,115.698 105.445,115.698C106.311,115.698 107.11,114.602 107.842,112.413C108.578,110.213 109.139,107.125 109.524,103.148C109.905,99.216 110.099,93.824 110.099,86.964C110.099,78.457 109.662,71.8 108.797,66.976C107.929,62.135 106.812,59.704 105.445,59.704C104.216,59.704 103.175,61.701 102.32,65.678C102.32,65.678 102.32,65.679 102.32,65.679C101.299,70.453 100.782,77.784 100.782,87.701ZM102.73,87.701C102.73,81.232 102.984,76.385 103.506,73.182C104.02,70.035 104.666,68.778 105.445,68.778C106.212,68.778 106.854,70.045 107.37,73.207C107.895,76.423 108.151,81.163 108.151,87.406C108.151,94.039 107.897,98.985 107.374,102.223C106.861,105.399 106.217,106.673 105.445,106.673C104.667,106.673 104.02,105.408 103.507,102.246C102.984,99.027 102.73,94.171 102.73,87.701Z" style="fill-rule:nonzero;"/>
        </g>
        <g transform="matrix(0.971255,0,0,0.971255,18.502,-0.318923)">
            <path d="M100.782,87.701C100.782,96.737 101.215,103.646 102.07,108.449C102.928,113.273 104.053,115.698 105.445,115.698C106.311,115.698 107.11,114.602 107.842,112.413C108.578,110.213 109.139,107.125 109.524,103.148C109.905,99.216 110.099,93.824 110.099,86.964C110.099,78.457 109.662,71.8 108.797,66.976C107.929,62.135 106.812,59.704 105.445,59.704C104.216,59.704 103.175,61.701 102.32,65.678C102.32,65.678 102.32,65.679 102.32,65.679C101.299,70.453 100.782,77.784 100.782,87.701ZM102.73,87.701C102.73,81.232 102.984,76.385 103.506,73.182C104.02,70.035 104.666,68.778 105.445,68.778C106.212,68.778 106.854,70.045 107.37,73.207C107.895,76.423 108.151,81.163 108.151,87.406C108.151,94.039 107.897,98.985 107.374,102.223C106.861,105.399 106.217,106.673 105.445,106.673C104.667,106.673 104.02,105.408 103.507,102.246C102.984,99.027 102.73,94.171 102.73,87.701Z" style="fill-rule:nonzero;"/>
        </g>
        <g transform="matrix(1.15448,0,0,1.15448,-27.1687,-21.2048)">
            <path d="M132.592,81.121C132.273,78.315 131.77,73.548 131.243,69.658C131.435,62.478 131.707,58.684 131.69,53.398C132.247,52.799 132.749,52.274 133.324,51.795C133.384,52.754 133.405,53.052 133.478,54.369C133.895,55.724 134.533,56.735 135.164,56.994C135.988,57.333 137.579,56.966 138.712,56.451C138.692,61.011 138.304,65.022 138.068,68.426C137.766,72.784 137.598,77.152 137.551,81.149C137.521,83.704 137.466,88.36 137.533,91.295C137.588,93.654 137.598,96.342 137.894,97.291C138.051,97.794 138.177,97.616 138.33,97.085C138.416,100.674 138.453,102.983 138.588,106.928C138.091,108.407 137.685,108.399 137.278,107.47C136.892,106.587 136.487,104.681 136.126,99.618C135.832,95.5 135.744,87.698 135.813,81.722C135.874,76.526 136.1,70.757 136.535,65.568C135.208,66.461 134.09,65.312 133.273,63.465C133.091,66.611 132.805,76.564 132.592,81.121Z" style="fill-rule:nonzero;"/>
        </g>
        <g transform="matrix(-1,-6.61699e-16,2.12662e-17,-0.938272,226.275,166.637)">
            <path d="M84.753,60.163L84.753,115.062L86.8,115.014L86.8,85.243C86.8,81.354 86.882,78.301 87.054,76.092C87.219,73.992 87.468,72.189 87.854,70.961C88.248,69.706 88.67,69.217 89.042,69.217C89.636,69.217 90.201,70.545 90.496,72.005C90.917,74.085 90.985,76.724 90.985,80.721L90.985,114.98L93.031,114.98L93.031,80.721C93.031,75.381 92.907,71.313 92.669,68.506C92.423,65.596 92.016,63.304 91.445,61.653C90.891,60.054 90.239,59.242 89.488,59.242C88.38,59.242 87.495,60.859 86.8,63.452C86.8,63.452 86.8,60.163 86.8,60.163L84.753,60.163Z" style="fill-rule:nonzero;"/>
        </g>
        <g transform="matrix(1.22401,0,0,1,-40.03,-3.62409)">
            <rect x="149.14" y="41.741" width="1.638" height="72.061" style="fill-rule:nonzero;"/>
        </g>
        <g transform="matrix(0.971255,0,0,0.971255,47.5393,-0.318923)">
            <path d="M109.962,89.804L102.256,89.804L102.256,81.808L108.204,81.808C108.087,78.044 107.842,75.019 107.469,72.733C106.926,69.407 106.252,68.062 105.445,68.062C104.626,68.062 103.947,69.399 103.407,72.709C102.867,76.019 102.597,81.016 102.597,87.701C102.597,94.386 102.867,99.392 103.407,102.718C103.947,106.044 104.626,107.389 105.445,107.389C106.258,107.389 106.934,106.036 107.474,102.693C107.626,101.749 107.792,100.426 107.902,99.203C107.902,99.203 109.09,102.057 109.407,102.816C109.034,106.667 108.491,109.657 107.778,111.787C107.066,113.917 106.288,114.982 105.445,114.982C104.092,114.982 102.999,112.639 102.165,107.953C101.331,103.267 100.914,96.516 100.914,87.701C100.914,78.034 101.412,70.874 102.406,66.22C103.237,62.353 104.25,60.42 105.445,60.42C106.773,60.42 107.859,62.771 108.702,67.474C109.545,72.176 109.995,78.674 109.966,86.964C109.962,88.225 109.971,87.954 109.962,89.804Z" style="fill-rule:nonzero;"/>
        </g>
    </g>
    <g>
        <path d="M95.697,75.706C93.143,74.007 89.851,72.509 85.607,72.038C83.444,71.797 78.703,71.527 73.441,74.452C70.489,76.093 67.646,79.093 66.013,82.05C62.966,87.566 62.856,92.451 62.856,95.191C62.856,104.901 67.261,111.164 74.06,114.259C80.865,117.357 89.156,115.879 93.491,113.027C97.588,110.332 99.255,107.602 100.176,105.324C104.433,108.072 106.465,109.29 111.42,112.425C111.24,112.642 111.062,112.859 110.921,113.035C110.478,113.591 105.479,118.187 98.829,121.797C94.483,124.157 89.547,125.552 84.47,125.683C81.614,125.757 71.486,125.077 62.512,117.434C53.027,109.356 53.008,98.063 53.008,94.961C53.008,72.602 70.125,65.86 77.657,64.5C81.544,63.799 85.098,63.834 88.846,64.42C92.729,65.027 95.596,65.68 99.669,66.228C100.986,66.405 101.882,66.421 102.775,66.416C101.966,67.057 101.177,67.728 100.56,68.375C98.649,70.379 96.645,73.228 95.698,75.706L95.697,75.706Z" style=""/>
    </g>
</svg>
